HIERARCHY
ROOT Hips
{
	OFFSET 0.00000 0.00000 0.00000
	CHANNELS 6 Xposition Yposition Zposition Zrotation Yrotation Xrotation 
	JOINT LHipJoint
	{
		OFFSET 0 0 0
		CHANNELS 3 Zrotation Yrotation Xrotation
		JOINT LeftUpLeg
		{
			OFFSET 1.43652 -1.81092 0.91346
			CHANNELS 3 Zrotation Yrotation Xrotation
			JOINT LeftLeg
			{
				OFFSET 2.45984 -6.75837 0.00000
				CHANNELS 3 Zrotation Yrotation Xrotation
				JOINT LeftFoot
				{
					OFFSET 2.63718 -7.24559 0.00000
					CHANNELS 3 Zrotation Yrotation Xrotation
					JOINT LeftToeBase
					{
						OFFSET 0.19690 -0.54098 2.12239
						CHANNELS 3 Zrotation Yrotation Xrotation
						End Site
						{
							OFFSET 0.00000 -0.00000 1.10116
						}
					}
				}
			}
		}
	}
	JOINT RHipJoint
	{
		OFFSET 0 0 0
		CHANNELS 3 Zrotation Yrotation Xrotation
		JOINT RightUpLeg
		{
			OFFSET -1.35116 -1.81092 0.91345
			CHANNELS 3 Zrotation Yrotation Xrotation
			JOINT RightLeg
			{
				OFFSET -2.55576 -7.02189 0.00000
				CHANNELS 3 Zrotation Yrotation Xrotation
				JOINT RightFoot
				{
					OFFSET -2.61938 -7.19669 0.00000
					CHANNELS 3 Zrotation Yrotation Xrotation
					JOINT RightToeBase
					{
						OFFSET -0.32509 -0.89318 2.23646
						CHANNELS 3 Zrotation Yrotation Xrotation
						End Site
						{
							OFFSET -0.00000 -0.00000 1.19625
						}
					}
				}
			}
		}
	}
	JOINT LowerBack
	{
		OFFSET 0 0 0
		CHANNELS 3 Zrotation Yrotation Xrotation
		JOINT Spine
		{
			OFFSET 0.05193 2.08077 -0.11958
			CHANNELS 3 Zrotation Yrotation Xrotation
			JOINT Spine1
			{
				OFFSET 0.04960 2.08447 0.01967
				CHANNELS 3 Zrotation Yrotation Xrotation
				JOINT Neck
				{
					OFFSET 0 0 0
					CHANNELS 3 Zrotation Yrotation Xrotation
					JOINT Neck1
					{
						OFFSET -0.10699 1.82066 0.27584
						CHANNELS 3 Zrotation Yrotation Xrotation
						JOINT Head
						{
							OFFSET 0.14949 1.84747 -0.32279
							CHANNELS 3 Zrotation Yrotation Xrotation
							End Site
							{
								OFFSET 0.04969 1.88916 -0.14562
							}
						}
					}
				}
				JOINT LeftShoulder
				{
					OFFSET 0 0 0
					CHANNELS 3 Zrotation Yrotation Xrotation
					JOINT LeftArm
					{
						OFFSET 3.73629 1.27211 -0.12847
						CHANNELS 3 Zrotation Yrotation Xrotation
						JOINT LeftForeArm
						{
							OFFSET 5.10995 -0.00000 0.00000
							CHANNELS 3 Zrotation Yrotation Xrotation
							JOINT LeftHand
							{
								OFFSET 3.21207 -0.00000 0.00000
								CHANNELS 3 Zrotation Yrotation Xrotation
								JOINT LeftFingerBase
								{
									OFFSET 0 0 0
									CHANNELS 3 Zrotation Yrotation Xrotation
									JOINT LeftHandIndex1
									{
										OFFSET 0.63349 -0.00000 0.00000
										CHANNELS 3 Zrotation Yrotation Xrotation
										End Site
										{
											OFFSET 0.51074 -0.00000 0.00000
										}
									}
								}
								JOINT LThumb
								{
									OFFSET 0 0 0
									CHANNELS 3 Zrotation Yrotation Xrotation
									End Site
									{
										OFFSET 0.51853 -0.00000 0.51853
									}
								}
							}
						}
					}
				}
				JOINT RightShoulder
				{
					OFFSET 0 0 0
					CHANNELS 3 Zrotation Yrotation Xrotation
					JOINT RightArm
					{
						OFFSET -3.70251 1.29541 -0.35354
						CHANNELS 3 Zrotation Yrotation Xrotation
						JOINT RightForeArm
						{
							OFFSET -5.25109 -0.00000 0.00000
							CHANNELS 3 Zrotation Yrotation Xrotation
							JOINT RightHand
							{
								OFFSET -3.28364 -0.00000 0.00000
								CHANNELS 3 Zrotation Yrotation Xrotation
								JOINT RightFingerBase
								{
									OFFSET 0 0 0
									CHANNELS 3 Zrotation Yrotation Xrotation
									JOINT RightHandIndex1
									{
										OFFSET -0.59974 -0.00000 0.00000
										CHANNELS 3 Zrotation Yrotation Xrotation
										End Site
										{
											OFFSET -0.48353 -0.00000 0.00000
										}
									}
								}
								JOINT RThumb
								{
									OFFSET 0 0 0
									CHANNELS 3 Zrotation Yrotation Xrotation
									End Site
									{
										OFFSET -0.49091 -0.00000 0.49091
									}
								}
							}
						}
					}
				}
			}
		}
	}
}
MOTION
Frames: 11
Frame Time: .0083333
4.5076 17.7789 -26.8799 0 0 0 0 0 0 -21 0 0 0 0 0 0 0 0 0 0 0 0 0 0 21 0 0 0 0 0 0 0 0 0 0 0 0 0 0 0 0 0 0 0 0 0 0 -16 0 0 21 0 0 11 0 0 0 -8 0 0 0 0 0 0 0 0 0 0 0 0 0 0 0 0 0 0 0 0 8 0 0 0 0 0 0 0 0 0 0 0 0 0 0 0 0 0
4.5076 17.7789 -26.8799 -6.5678 -2.0950 7.7729 0.0000 0.0000 0.0000 -12.2561 -2.1066 -16.7410 2.1269 9.1256 26.1890 -0.1778 12.1354 -14.6246 0.0079 -0.5730 -1.5746 0.0000 0.0000 0.0000 24.8762 3.5642 -11.9729 -1.8612 -8.5709 24.4619 -0.4250 -12.8651 -22.8164 -0.0041 -0.4158 1.1424 3.2687 0.3816 0.9792 3.1206 0.6334 -1.5301 1.3557 0.2903 -2.1217 -20.2162 -18.4087 -7.0766 18.5375 -25.9126 11.9649 5.5531 -12.1214 10.0969 -0.0000 0.0000 0.0000 -89.5550 6.4544 9.8572 17.2441 -27.1784 -4.1982 -0.0000 -0.0000 3.7610 9.6231 11.7150 1.9717 -7.1250 0.0000 -0.0000 -15.5536 41.3405 1.4430 -0.0000 0.0000 0.0000 89.2736 3.0646 4.4519 -107.1142 58.8638 -74.7648 0.0000 -0.0000 -87.6773 -17.9154 -2.7774 0.8975 7.1250 -0.0000 -0.0000 7.0396 -32.8418 2.1104
4.5079 17.7794 -26.8815 -6.5586 -2.0348 7.8084 0.0000 0.0000 0.0000 -12.2563 -2.1626 -16.7583 2.1226 9.1169 26.1618 -0.1744 12.1105 -14.6407 0.0067 -0.5277 -1.4501 0.0000 0.0000 0.0000 24.8774 3.6641 -12.0250 -1.8711 -8.5922 24.5277 -0.4207 -12.9822 -22.9075 -0.0052 -0.4651 1.2781 3.2155 0.3789 0.9601 3.1279 0.6262 -1.4937 1.3932 0.2882 -2.0741 -19.3181 -18.5150 -7.0936 17.2628 -25.8391 11.7792 5.0571 -12.1420 9.6812 -0.0000 -0.0000 0.0000 -89.4722 6.2864 9.7376 17.2880 -27.2358 -4.2183 -0.0000 -0.0000 3.5985 9.8950 11.9491 2.0684 -7.1250 0.0000 -0.0000 -15.3826 41.5939 1.3274 -0.0000 -0.0000 0.0000 89.0674 3.5325 3.9421 -106.8926 58.8938 -74.5751 0.0000 -0.0000 -87.1607 -17.7713 -2.4098 0.7721 7.1250 -0.0000 -0.0000 7.1207 -32.4548 2.2020
4.5160 17.7795 -26.8810 -6.4962 -2.3161 7.8545 0.0000 0.0000 0.0000 -12.4000 -2.0517 -16.8036 2.1233 9.1184 26.1664 -0.1914 12.3226 -14.7179 0.0097 -0.6365 -1.7492 0.0000 0.0000 0.0000 24.7382 3.8178 -12.0663 -1.8748 -8.6002 24.5526 -0.4093 -12.9583 -22.7744 -0.0033 -0.3709 1.0192 3.1399 0.4858 0.9951 3.1047 0.7697 -1.5101 1.4074 0.3605 -2.1114 -18.4783 -18.6077 -7.0149 15.9954 -25.7667 11.5734 4.5937 -12.1732 9.2622 -0.0000 0.0000 0.0000 -89.4162 6.2529 9.6443 17.3503 -27.3173 -4.2468 -0.0000 -0.0000 3.4288 10.0142 11.8039 2.0687 -7.1250 0.0000 -0.0000 -15.2406 41.4633 1.3649 -0.0000 0.0000 0.0000 88.8128 3.7842 3.4210 -107.4558 58.8168 -75.0571 0.0000 -0.0000 -86.5095 -18.3937 -3.0294 1.0068 7.1250 -0.0000 -0.0000 6.6772 -33.1196 1.9554
4.5189 17.7798 -26.8797 -6.5061 -2.0767 7.8095 0.0000 0.0000 0.0000 -12.3671 -2.1754 -16.7655 2.1236 9.1189 26.1679 -0.1821 12.2036 -14.6700 0.0095 -0.6290 -1.7286 0.0000 0.0000 0.0000 24.7803 3.7072 -12.0434 -1.8791 -8.6095 24.5813 -0.4147 -13.0380 -22.9149 -0.0049 -0.4525 1.2434 3.1653 0.4140 1.0326 3.1276 0.6761 -1.4953 1.4192 0.3136 -2.1171 -17.7719 -18.6741 -6.8553 14.9191 -25.6926 11.2841 4.2256 -12.2030 8.8585 0.0000 0.0000 0.0000 -89.3510 6.2294 9.6463 17.4467 -27.4429 -4.2912 -0.0000 -0.0000 3.2507 10.1597 11.8932 2.1150 -7.1250 0.0000 -0.0000 -15.1389 41.5640 1.3167 0.0000 0.0000 0.0000 88.5579 4.0072 3.0106 -108.1261 58.7214 -75.6303 0.0000 -0.0000 -86.3078 -19.0744 -3.4061 1.1769 7.1250 -0.0000 -0.0000 6.1603 -33.5368 1.7399
4.5217 17.7803 -26.8813 -6.4844 -1.9897 7.8286 0.0000 0.0000 0.0000 -12.3881 -2.2157 -16.8215 2.1260 9.1237 26.1831 -0.1787 12.1544 -14.6434 0.0104 -0.6595 -1.8123 0.0000 0.0000 0.0000 24.7619 3.7180 -12.0720 -1.8835 -8.6191 24.6110 -0.4156 -13.0964 -22.9888 -0.0063 -0.5145 1.4138 3.1292 0.3978 1.0717 3.1368 0.6565 -1.5047 1.4491 0.3042 -2.1492 -17.3666 -18.7049 -6.6702 14.3274 -25.6483 11.0126 4.0386 -12.2251 8.5829 -0.0000 0.0000 0.0000 -89.2841 6.1926 9.6303 17.5308 -27.5522 -4.3300 -0.0000 -0.0000 3.0768 10.2989 11.8963 2.1452 -7.1250 0.0000 -0.0000 -15.0194 41.5800 1.2997 -0.0000 0.0000 0.0000 88.3216 4.2863 2.5219 -108.6728 58.6407 -76.0973 0.0000 -0.0000 -85.9811 -19.6340 -3.8618 1.3764 7.1250 -0.0000 -0.0000 5.7458 -34.0368 1.5519
4.5238 17.7811 -26.8842 -6.4579 -1.8744 7.8611 0.0000 0.0000 0.0000 -12.4075 -2.2458 -16.9094 2.1276 9.1271 26.1936 -0.1725 12.0615 -14.5882 0.0115 -0.6925 -1.9032 0.0000 0.0000 0.0000 24.7439 3.7203 -12.1174 -1.8871 -8.6268 24.6348 -0.4162 -13.1611 -23.0673 -0.0083 -0.5866 1.6118 3.0870 0.3738 1.1237 3.1468 0.6278 -1.5278 1.4836 0.2901 -2.2027 -17.3849 -18.6444 -6.1319 14.5477 -25.5861 10.3199 4.1886 -12.2299 8.2873 0.0000 0.0000 0.0000 -89.2156 6.1684 9.6445 17.6207 -27.6688 -4.3717 -0.0000 -0.0000 2.9072 10.4114 11.8708 2.1645 -7.1250 0.0000 -0.0000 -14.9155 41.5655 1.2957 0.0000 0.0000 0.0000 88.0913 4.5542 2.0188 -109.3285 58.5402 -76.6569 0.0000 -0.0000 -85.7248 -20.2567 -4.4408 1.6368 7.1250 -0.0000 -0.0000 5.2880 -34.6740 1.3453
4.5250 17.7820 -26.8885 -6.4249 -1.7322 7.9090 0.0000 0.0000 0.0000 -12.4263 -2.2771 -17.0249 2.1290 9.1297 26.2020 -0.1641 11.9336 -14.5149 0.0125 -0.7225 -1.9855 0.0000 0.0000 0.0000 24.7238 3.7249 -12.1955 -1.8937 -8.6411 24.6788 -0.4171 -13.2361 -23.1600 -0.0106 -0.6639 1.8244 3.0362 0.3426 1.1789 3.1563 0.5896 -1.5567 1.5227 0.2714 -2.2640 -17.7322 -18.5078 -5.3519 15.3959 -25.4965 9.3280 4.5953 -12.2161 7.9891 0.0000 -0.0000 0.0000 -89.1435 6.1406 9.6878 17.7152 -27.7909 -4.4156 -0.0000 -0.0000 2.7428 10.5113 11.8437 2.1809 -7.1250 0.0000 -0.0000 -14.8219 41.5485 1.2936 0.0000 -0.0000 0.0000 87.8703 4.8257 1.5042 -110.0637 58.4229 -77.2836 0.0000 -0.0000 -85.5261 -20.8870 -5.0631 1.9289 7.1250 -0.0000 -0.0000 4.8242 -35.3635 1.1454
4.5262 17.7831 -26.8934 -6.3829 -1.6049 7.9696 0.0000 0.0000 0.0000 -12.4572 -2.2959 -17.1514 2.1290 9.1297 26.2019 -0.1558 11.8052 -14.4387 0.0136 -0.7533 -2.0702 0.0000 0.0000 0.0000 24.6901 3.7381 -12.2987 -1.9016 -8.6581 24.7315 -0.4154 -13.3145 -23.2336 -0.0123 -0.7162 1.9681 2.9816 0.3191 1.2317 3.1593 0.5611 -1.5852 1.5569 0.2576 -2.3234 -18.3567 -18.2931 -4.3659 16.7866 -25.3592 8.0653 5.2282 -12.1822 7.6825 0.0000 -0.0000 0.0000 -89.0653 6.1058 9.7599 17.8150 -27.9196 -4.4623 -0.0000 -0.0000 2.5888 10.5969 11.8304 2.1966 -7.1250 0.0000 -0.0000 -14.7445 41.5434 1.2884 0.0000 -0.0000 0.0000 87.6623 5.1033 0.9682 -110.8919 58.2848 -77.9887 0.0000 -0.0000 -85.3560 -21.5246 -5.7378 2.2581 7.1250 -0.0000 -0.0000 4.3553 -36.1155 0.9535
4.5279 17.7841 -26.8976 -6.3352 -1.5043 8.0290 0.0000 0.0000 0.0000 -12.5015 -2.3097 -17.2591 2.1272 9.1262 26.1908 -0.1491 11.6975 -14.3718 0.0145 -0.7781 -2.1385 0.0000 0.0000 0.0000 24.6420 3.7502 -12.4039 -1.9101 -8.6763 24.7880 -0.4149 -13.3713 -23.2935 -0.0138 -0.7581 2.0834 2.9342 0.3054 1.2770 3.1551 0.5449 -1.6027 1.5795 0.2500 -2.3673 -19.0295 -18.0434 -3.3401 18.2901 -25.1749 6.7145 5.9171 -12.1366 7.3607 0.0000 -0.0000 0.0000 -88.9845 6.0552 9.8483 17.9161 -28.0496 -4.5097 -0.0000 -0.0000 2.4484 10.6645 11.8271 2.2103 -7.1250 0.0000 -0.0000 -14.6851 41.5464 1.2818 0.0000 -0.0000 0.0000 87.4614 5.3759 0.4264 -111.8248 58.1214 -78.7817 0.0000 -0.0000 -85.2039 -22.1668 -6.4114 2.6049 7.1250 -0.0000 -0.0000 3.8784 -36.8739 0.7767
4.5305 17.7850 -26.9002 -6.2849 -1.4320 8.0777 0.0000 0.0000 0.0000 -12.5564 -2.3234 -17.3307 2.1238 9.1193 26.1693 -0.1445 11.6209 -14.3236 0.0151 -0.7944 -2.1832 0.0000 0.0000 0.0000 24.5839 3.7562 -12.4968 -1.9183 -8.6937 24.8418 -0.4146 -13.4117 -23.3369 -0.0146 -0.7795 2.1423 2.8971 0.3027 1.3094 3.1447 0.5420 -1.6034 1.5895 0.2489 -2.3863 -19.6084 -17.8144 -2.4663 19.5915 -24.9875 5.5384 6.5203 -12.0921 7.0806 -0.0000 -0.0000 0.0000 -88.9015 5.9919 9.9571 18.0225 -28.1859 -4.5598 -0.0000 -0.0000 2.3185 10.7234 11.8549 2.2279 -7.1250 0.0000 -0.0000 -14.6416 41.5793 1.2656 -0.0000 -0.0000 0.0000 87.2702 5.6461 -0.1215 -112.8467 57.9328 -79.6485 0.0000 -0.0000 -85.0442 -22.8075 -7.0704 2.9630 7.1250 -0.0000 -0.0000 3.3972 -37.6235 0.6177
